<svg width="500" height="500" viewBox="0 0 500 500" fill="none" xmlns="http://www.w3.org/2000/svg">
<rect width="500" height="500" fill="black"/>
<path d="M241.343 194.213C236.277 204.746 220.143 237.546 205.61 267.146C191.21 296.746 179.61 321.146 180.01 321.546C180.81 322.346 316.81 307.546 319.877 306.346C321.743 305.546 321.477 304.079 316.81 294.079C311.877 283.146 311.61 282.746 307.343 283.013C304.943 283.146 285.343 285.146 263.877 287.546C242.41 289.813 224.543 291.413 224.01 290.879C223.077 290.079 250.277 234.079 251.61 234.079C252.01 234.079 256.943 243.813 262.543 255.546L272.81 276.879L282.543 275.946C300.143 274.213 300.943 279.546 275.743 227.413C263.61 202.079 252.943 179.946 252.143 178.213C250.943 175.279 250.01 176.613 241.343 194.213Z" fill="white"/>
<path d="M306.277 317.546C304.41 317.946 300.41 318.479 297.343 318.879C286.41 320.213 291.61 322.079 306.41 322.079C319.343 322.079 321.077 321.813 320.41 319.946C320.01 318.746 319.61 317.546 319.61 317.279C319.61 316.613 311.21 316.879 306.277 317.546Z" fill="white"/>
</svg>
