<svg width="895" height="147" viewBox="0 0 895 147" fill="none" xmlns="http://www.w3.org/2000/svg">
<path d="M0 73.6V146.933H44H88V132.933V118.933H58.6667H29.3333V59.6V0.266675H14.6667H0V73.6Z" fill="#FFF2F2"/>
<path d="M109.333 73.6V146.933H124H138.667V115.6V84.2667H166H193.333V70.2667V56.2667H166H138.667V42.9333V29.6H172.667H206.667V14.9333V0.266675H158H109.333V73.6Z" fill="#FFF2F2"/>
<path d="M232.933 1.19997C232.4 1.59997 232 8.26664 232 15.8666V29.6H281.333H330.8L330.4 15.2L330 0.933307L281.867 0.533307C255.467 0.399974 233.467 0.666641 232.933 1.19997Z" fill="#FFF2F2"/>
<path d="M354.667 73.4667V146.933H369.333H384V88.2667V29.6H401.333C419.733 29.6 425.2 30.9333 428 36.1333C430.4 40.8 429.6 47.7333 425.867 52.1333C422.533 56 422 56.2667 412.533 56.2667H402.667V74.2667V92.2667L416.267 119.6L430 146.933H445.733C454.4 146.933 461.333 146.533 461.067 145.867C460.933 145.333 453.6 131.067 445.067 114C436.4 96.9333 429.333 82.8 429.333 82.4C429.333 82.1333 431.333 81.0667 433.867 80.2667C436.4 79.4667 440.933 76.4 444 73.3333C460.933 57.0667 461.733 26.9333 445.867 11.4667C435.867 1.86668 432.533 1.20001 391.067 0.533342L354.667 0.133342V73.4667Z" fill="#FFF2F2"/>
<path d="M480 73.4667V146.933H494.667H509.333V88.2667V29.6H526C545.467 29.6 550.667 31.0667 553.2 37.4667C555.6 43.0667 554 50.1333 549.733 53.6C547.067 55.7333 544.4 56.2667 537.2 56.2667H528V74.9333V93.6L541.333 120.267L554.667 146.933H570.8H586.8L570.8 115.467C561.867 98.1333 554.667 83.4667 554.667 82.9333C554.667 82.4 557.067 80.9333 559.867 79.6C567.067 76.4 573.867 69.0667 578.267 59.6C581.333 52.9333 581.867 49.8667 581.867 40.9333C581.867 23.4667 574.133 10.6667 559.467 4.00001C553.067 1.06668 550.8 0.933342 516.4 0.533342L480 8.61287e-06V73.4667Z" fill="#FFF2F2"/>
<path d="M608 14.9333V29.6H656.667H705.333V14.9333V0.266641H656.667H608V14.9333Z" fill="#FFF2F2"/>
<path d="M732 73.6V146.933H746.667H761.333V73.6V0.266675H746.667H732V73.6Z" fill="#FFF2F2"/>
<path d="M788.933 1.06668C788.4 1.60001 788 34.6667 788 74.5333V146.933H802.667H817.333L817.6 88.5333L818 30.2667H837.067H856.267L859.467 34C864 39.3333 863.867 48 859.2 52.6667C856.267 55.7333 854.4 56.2667 846.267 56.5333L836.667 56.9333L836.267 74.2667L835.867 91.6L849.6 119.2L863.333 146.933H878.933C887.6 146.933 894.667 146.667 894.667 146.267C894.667 145.867 887.6 131.333 878.8 113.867L862.933 82.2667L869.733 78.9333C894.267 66.9333 898.133 25.3333 876.267 8.66668C873.2 6.26668 868.4 3.60001 865.6 2.80001C860.133 0.933342 790.667 -0.533325 788.933 1.06668Z" fill="#FFF2F2"/>
<path d="M232.533 58C232.133 59.0667 232 65.2 232.267 71.7333L232.667 83.6L273.067 84L313.333 84.2667V70.2667V56.2667H273.333C241.2 56.2667 233.067 56.6667 232.533 58Z" fill="#FFF2F2"/>
<path d="M608 70.2667V84.2667H648H688V70.2667V56.2667H648H608V70.2667Z" fill="#FFF2F2"/>
<path d="M232 132.933V146.933H281.333H330.667V132.933V118.933H281.333H232V132.933Z" fill="#FFF2F2"/>
<path d="M608 132.933V146.933H656.667H705.333V132.933V118.933H656.667H608V132.933Z" fill="#FFF2F2"/>
</svg>
