<svg width="141" height="146" viewBox="0 0 141 146" fill="none" xmlns="http://www.w3.org/2000/svg">
<path d="M61.3434 17.2128C56.2767 27.7461 40.1434 60.5461 25.61 90.1461C11.21 119.746 -0.389957 144.146 0.010043 144.546C0.810043 145.346 136.81 130.546 139.877 129.346C141.743 128.546 141.477 127.079 136.81 117.079C131.877 106.146 131.61 105.746 127.343 106.013C124.943 106.146 105.343 108.146 83.8767 110.546C62.41 112.813 44.5434 114.413 44.01 113.879C43.0767 113.079 70.2767 57.0794 71.61 57.0794C72.01 57.0794 76.9434 66.8128 82.5434 78.5461L92.8101 99.8794L102.543 98.9461C120.143 97.2128 120.943 102.546 95.7434 50.4128C83.61 25.0794 72.9434 2.9461 72.1434 1.21277C70.9434 -1.72056 70.01 -0.387232 61.3434 17.2128Z" fill="#FFF2F2"/>
<path d="M126.277 140.546C124.41 140.946 120.41 141.479 117.343 141.879C106.41 143.213 111.61 145.079 126.41 145.079C139.343 145.079 141.077 144.813 140.41 142.946C140.01 141.746 139.61 140.546 139.61 140.279C139.61 139.613 131.21 139.879 126.277 140.546Z" fill="#FFF2F2"/>
</svg>
